<svg width="21" height="20" viewBox="0 0 21 20" fill="none" xmlns="http://www.w3.org/2000/svg">
<path opacity="0.8" d="M4.04102 5.83333C4.04102 3.64721 5.81322 1.875 7.99935 1.875C10.1855 1.875 11.9577 3.64721 11.9577 5.83333C11.9577 8.01946 10.1855 9.79167 7.99935 9.79167C5.81322 9.79167 4.04102 8.01946 4.04102 5.83333Z" fill="#525866"/>
<path opacity="0.8" d="M1.54102 15.8327C1.54102 13.1863 3.68632 11.041 6.33268 11.041H9.66602C12.3123 11.041 14.4577 13.1863 14.4577 15.8327C14.4577 17.0983 13.4317 18.1243 12.166 18.1243H3.83268C2.56703 18.1243 1.54102 17.0983 1.54102 15.8327Z" fill="#525866"/>
<path d="M11.6445 9.55367C12.0672 9.70767 12.5235 9.79167 12.9995 9.79167C15.1856 9.79167 16.9579 8.01946 16.9579 5.83333C16.9579 3.64721 15.1856 1.875 12.9995 1.875C12.5235 1.875 12.0672 1.95901 11.6445 2.113C12.6093 3.05833 13.2079 4.37592 13.2079 5.83333C13.2079 7.29074 12.6093 8.60833 11.6445 9.55367Z" fill="#525866"/>
<path d="M14.8677 18.1243H17.1672C18.4329 18.1243 19.4589 17.0983 19.4589 15.8327C19.4589 13.1863 17.3137 11.041 14.6672 11.041H13.3477C14.7836 12.1455 15.7089 13.881 15.7089 15.8327C15.7089 16.7067 15.3924 17.5067 14.8677 18.1243Z" fill="#525866"/>
</svg>
